[h264 @ 0x55e17dc44100] Reinit context to 720x1280, pix_fmt: yuv420p
Input #0, mov,mp4,m4a,3gp,3g2,mj2, from '/var/www/html/project/media/video/original/pn_ver.mp4':
  Metadata:
    major_brand     : mp42
    minor_version   : 0
    compatible_brands: mp42mp41
    creation_time   : 2023-05-13T06:23:49.000000Z
  Duration: 00:00:32.47, start: 0.000000, bitrate: 10560 kb/s
    Stream #0:0(eng): Video: h264 (Main), 1 reference frame (avc1 / 0x31637661), yuv420p(tv, bt709, left), 720x1280, 10247 kb/s, 29.97 fps, 29.97 tbr, 30k tbn, 59.94 tbc (default)
    Metadata:
      creation_time   : 2023-05-13T06:23:49.000000Z
      handler_name    : ?Mainconcept Video Media Handler
      encoder         : AVC Coding
    Stream #0:1(eng): Audio: aac (LC) (mp4a / 0x6134706D), 48000 Hz, stereo, fltp, 317 kb/s (default)
    Metadata:
      creation_time   : 2023-05-13T06:23:49.000000Z
      handler_name    : #Mainconcept MP4 Sound Media Handler
Input #1, png_pipe, from '/var/www/html/project/static/images/templates/logo_vertical.png':
  Duration: N/A, bitrate: N/A
    Stream #1:0: Video: png, 1 reference frame, rgba(pc), 1920x1080 [SAR 2835:2835 DAR 16:9], 25 tbr, 25 tbn, 25 tbc
[h264 @ 0x55e17dc561c0] Reinit context to 1280x720, pix_fmt: yuv420p
Input #2, mov,mp4,m4a,3gp,3g2,mj2, from '/var/www/html/project/static/images/templates/Codino.mp4':
  Metadata:
    major_brand     : mp42
    minor_version   : 1
    compatible_brands: isommp41mp42
    creation_time   : 2021-07-11T07:02:58.000000Z
  Duration: 00:00:02.00, start: 0.000000, bitrate: 1007 kb/s
    Stream #2:0(ita): Audio: aac (LC) (mp4a / 0x6134706D), 44100 Hz, stereo, fltp, 102 kb/s (default)
    Metadata:
      creation_time   : 2021-07-11T07:02:58.000000Z
      handler_name    : Core Media Audio
    Stream #2:1(und): Video: h264 (High), 1 reference frame (avc1 / 0x31637661), yuv420p(tv, bt709, progressive, left), 1280x720 [SAR 1:1 DAR 16:9], 813 kb/s, 25 fps, 25 tbr, 25k tbn, 50k tbc (default)
    Metadata:
      creation_time   : 2021-07-11T07:02:58.000000Z
      handler_name    : Core Media Video
[Parsed_scale_1 @ 0x55e17dd36680] w:1280 h:720 flags:'bilinear' interl:0
[Parsed_scale_4 @ 0x55e17ddac700] w:-1 h:720 flags:'bilinear' interl:0
[Parsed_scale_7 @ 0x55e17dcc1c00] w:1280 h:720 flags:'bilinear' interl:0
[Parsed_scale_9 @ 0x55e17dcc1480] w:1280 h:720 flags:'bilinear' interl:0
Stream mapping:
  Stream #0:0 (h264) -> split
  Stream #0:1 (aac) -> concat:in0:a0
  Stream #1:0 (png) -> scale
  Stream #2:0 (aac) -> concat:in1:a0
  Stream #2:1 (h264) -> scale
  concat:out:v0 -> Stream #0:0 (libx264)
  concat:out:a0 -> Stream #0:1 (aac)
Press [q] to stop, [?] for help
[h264 @ 0x55e17dce8a00] Reinit context to 720x1280, pix_fmt: yuv420p
[h264 @ 0x55e17e178c40] Reinit context to 1280x720, pix_fmt: yuv420p
[Parsed_scale_1 @ 0x55e17dc95280] w:1280 h:720 flags:'bilinear' interl:0
[Parsed_scale_4 @ 0x55e17ef90680] w:-1 h:720 flags:'bilinear' interl:0
[Parsed_scale_7 @ 0x55e17ef93ec0] w:1280 h:720 flags:'bilinear' interl:0
[Parsed_scale_9 @ 0x55e17ef95680] w:1280 h:720 flags:'bilinear' interl:0
[graph 0 input from stream 0:0 @ 0x55e17ef99f00] w:720 h:1280 pixfmt:yuv420p tb:1/30000 fr:30000/1001 sar:0/1 sws_param:flags=2
[graph 0 input from stream 1:0 @ 0x55e17ef9afc0] w:1920 h:1080 pixfmt:rgba tb:1/25 fr:25/1 sar:2835/2835 sws_param:flags=2
[graph 0 input from stream 2:1 @ 0x55e17ef92580] w:1280 h:720 pixfmt:yuv420p tb:1/25000 fr:25/1 sar:1/1 sws_param:flags=2
[graph_0_in_0_1 @ 0x55e17ef90e00] tb:1/48000 samplefmt:fltp samplerate:48000 chlayout:0x3
[graph_0_in_2_0 @ 0x55e17ef90580] tb:1/44100 samplefmt:fltp samplerate:44100 chlayout:0x3
[Parsed_concat_12 @ 0x55e17ef97f80] auto-inserting filter 'auto_resampler_0' between the filter 'graph_0_in_2_0' and the filter 'Parsed_concat_12'
[Parsed_scale_1 @ 0x55e17dc95280] w:720 h:1280 fmt:yuv420p sar:0/1 -> w:1280 h:720 fmt:yuv420p sar:0/1 flags:0x2
[Parsed_boxblur_2 @ 0x55e17dc94fc0] luma_radius:36 luma_power:1 chroma_radius:18 chroma_power:1 alpha_radius:36 alpha_power:1 w:1280 chroma_w:640 h:720 chroma_h:360
[Parsed_setsar_3 @ 0x55e17ef90840] w:1280 h:720 sar:0/1 dar:16/9 -> sar:1/1 dar:16/9
[Parsed_scale_4 @ 0x55e17ef90680] w:720 h:1280 fmt:yuv420p sar:0/1 -> w:405 h:720 fmt:yuva420p sar:0/1 flags:0x2
[Parsed_setsar_5 @ 0x55e17ef91640] w:405 h:720 sar:0/1 dar:9/16 -> sar:1/1 dar:9/16
[Parsed_overlay_6 @ 0x55e17ef92b80] main w:1280 h:720 fmt:yuv420p overlay w:405 h:720 fmt:yuva420p
[Parsed_overlay_6 @ 0x55e17ef92b80] [framesync @ 0x55e17ef93028] Selected 1/30000 time base
[Parsed_overlay_6 @ 0x55e17ef92b80] [framesync @ 0x55e17ef93028] Sync level 2
[Parsed_scale_7 @ 0x55e17ef93ec0] w:1920 h:1080 fmt:rgba sar:2835/2835 -> w:1280 h:720 fmt:yuva420p sar:1/1 flags:0x2
[Parsed_setsar_8 @ 0x55e17ef94a40] w:1280 h:720 sar:1/1 dar:16/9 -> sar:1/1 dar:16/9
[Parsed_overlay_11 @ 0x55e17ef96e40] main w:1280 h:720 fmt:yuv420p overlay w:1280 h:720 fmt:yuva420p
[Parsed_overlay_11 @ 0x55e17ef96e40] [framesync @ 0x55e17ef96fa8] Selected 1/30000 time base
[Parsed_overlay_11 @ 0x55e17ef96e40] [framesync @ 0x55e17ef96fa8] Sync level 2
[Parsed_scale_9 @ 0x55e17ef95680] w:1280 h:720 fmt:yuv420p sar:1/1 -> w:1280 h:720 fmt:yuv420p sar:1/1 flags:0x2
[Parsed_setsar_10 @ 0x55e17ef96140] w:1280 h:720 sar:1/1 dar:16/9 -> sar:1/1 dar:16/9
[auto_resampler_0 @ 0x55e17efa4240] ch:2 chl:stereo fmt:fltp r:44100Hz -> ch:2 chl:stereo fmt:fltp r:48000Hz
[libx264 @ 0x55e17dcc1180] using SAR=1/1
[libx264 @ 0x55e17dcc1180] using cpu capabilities: MMX2 SSE2Fast SSSE3 SSE4.2 AVX FMA3 BMI2 AVX2
[libx264 @ 0x55e17dcc1180] profile High, level 3.1
[libx264 @ 0x55e17dcc1180] 264 - core 155 r2917 0a84d98 - H.264/MPEG-4 AVC codec - Copyleft 2003-2018 - http://www.videolan.org/x264.html - options: cabac=1 ref=1 deblock=1:0:0 analyse=0x3:0x113 me=hex subme=2 psy=1 psy_rd=1.00:0.00 mixed_ref=0 me_range=16 chroma_me=1 trellis=0 8x8dct=1 cqm=0 deadzone=21,11 fast_pskip=1 chroma_qp_offset=0 threads=22 lookahead_threads=5 sliced_threads=0 nr=0 decimate=1 interlaced=0 bluray_compat=0 constrained_intra=0 bframes=3 b_pyramid=2 b_adapt=1 b_bias=0 direct=1 weightb=1 open_gop=0 weightp=1 keyint=250 keyint_min=25 scenecut=40 intra_refresh=0 rc_lookahead=10 rc=crf mbtree=1 crf=18.0 qcomp=0.60 qpmin=0 qpmax=69 qpstep=4 ip_ratio=1.40 aq=1:1.00
Output #0, mp4, to '/var/www/html/project/media/video/watermarks/pn_ver.mp4':
  Metadata:
    major_brand     : mp42
    minor_version   : 0
    compatible_brands: mp42mp41
    encoder         : Lavf58.29.100
    Stream #0:0: Video: h264 (libx264), 1 reference frame (avc1 / 0x31637661), yuv420p(progressive), 1280x720 [SAR 1:1 DAR 16:9], q=-1--1, 29.97 fps, 30k tbn, 29.97 tbc (default)
    Metadata:
      encoder         : Lavc58.54.100 libx264
    Side data:
      cpb: bitrate max/min/avg: 0/0/0 buffer size: 0 vbv_delay: -1
    Stream #0:1: Audio: aac (LC) (mp4a / 0x6134706D), 48000 Hz, stereo, fltp, delay 1024, 128 kb/s (default)
    Metadata:
      encoder         : Lavc58.54.100 aac
[Parsed_overlay_6 @ 0x55e17ef92b80] [framesync @ 0x55e17ef93028] Sync level 1
[Parsed_overlay_6 @ 0x55e17ef92b80] [framesync @ 0x55e17ef93028] Sync level 0
[Parsed_overlay_11 @ 0x55e17ef96e40] [framesync @ 0x55e17ef96fa8] Sync level 0
[Parsed_concat_12 @ 0x55e17ef97f80] EOF on in0:v0, 1 streams left in segment.
[Parsed_concat_12 @ 0x55e17ef97f80] EOF on in0:a0, 0 streams left in segment.
[Parsed_concat_12 @ 0x55e17ef97f80] Segment finished at pts=32448000
[Parsed_concat_12 @ 0x55e17ef97f80] EOF on in1:v0, 1 streams left in segment.
[Parsed_concat_12 @ 0x55e17ef97f80] EOF on in1:a0, 0 streams left in segment.
[Parsed_concat_12 @ 0x55e17ef97f80] Segment finished at pts=34466687
No more output streams to write to, finishing.
frame= 1022 fps= 32 q=-1.0 Lsize=   14984kB time=00:00:34.47 bitrate=3560.6kbits/s speed=1.08x    
[AVIOContext @ 0x55e17dc42500] Statistics: 0 seeks, 62 writeouts
video:14409kB audio:537kB subtitle:0kB other streams:0kB global headers:0kB muxing overhead: 0.255159%
Input file #0 (/var/www/html/project/media/video/original/pn_ver.mp4):
  Input stream #0:0 (video): 972 packets read (41545484 bytes); 972 frames decoded; 
  Input stream #0:1 (audio): 1521 packets read (1287286 bytes); 1521 frames decoded (1557504 samples); 
  Total: 2493 packets (42832770 bytes) demuxed
Input file #1 (/var/www/html/project/static/images/templates/logo_vertical.png):
  Input stream #1:0 (video): 1 packets read (93903 bytes); 1 frames decoded; 
  Total: 1 packets (93903 bytes) demuxed
Input file #2 (/var/www/html/project/static/images/templates/Codino.mp4):
  Input stream #2:0 (audio): 89 packets read (26579 bytes); 87 frames decoded (89024 samples); 
  Input stream #2:1 (video): 50 packets read (203365 bytes); 50 frames decoded; 
  Total: 139 packets (229944 bytes) demuxed
Output file #0 (/var/www/html/project/media/video/watermarks/pn_ver.mp4):
  Output stream #0:0 (video): 1022 frames encoded; 1022 packets muxed (14754498 bytes); 
  Output stream #0:1 (audio): 1616 frames encoded (1654401 samples); 1617 packets muxed (550049 bytes); 
  Total: 2639 packets (15304547 bytes) muxed
[AVIOContext @ 0x55e17dcee480] Statistics: 2 seeks, 62 writeouts
[libx264 @ 0x55e17dcc1180] frame I:6     Avg QP:13.63  size: 40889
[libx264 @ 0x55e17dcc1180] frame P:274   Avg QP:17.13  size: 24320
[libx264 @ 0x55e17dcc1180] frame B:742   Avg QP:19.27  size: 10573
[libx264 @ 0x55e17dcc1180] consecutive B-frames:  2.2%  2.5%  1.8% 93.5%
[libx264 @ 0x55e17dcc1180] mb I  I16..4: 44.2% 33.2% 22.5%
[libx264 @ 0x55e17dcc1180] mb P  I16..4: 23.5% 24.1%  5.2%  P16..4: 14.5%  9.8%  6.0%  0.0%  0.0%    skip:17.0%
[libx264 @ 0x55e17dcc1180] mb B  I16..4:  5.5%  4.3%  0.4%  B16..8: 23.5% 10.4%  2.2%  direct: 9.4%  skip:44.1%  L0:42.1% L1:43.6% BI:14.4%
[libx264 @ 0x55e17dcc1180] 8x8 transform intra:44.2% inter:18.8%
[libx264 @ 0x55e17dcc1180] coded y,uvDC,uvAC intra: 30.8% 41.7% 7.7% inter: 9.9% 19.2% 0.9%
[libx264 @ 0x55e17dcc1180] i16 v,h,dc,p: 40% 25%  9% 26%
[libx264 @ 0x55e17dcc1180] i8 v,h,dc,ddl,ddr,vr,hd,vl,hu: 17% 36% 16%  4%  6%  5%  7%  4%  4%
[libx264 @ 0x55e17dcc1180] i4 v,h,dc,ddl,ddr,vr,hd,vl,hu: 28% 16% 17%  6%  8%  8%  7%  6%  5%
[libx264 @ 0x55e17dcc1180] i8c dc,h,v,p: 52% 23% 14% 11%
[libx264 @ 0x55e17dcc1180] Weighted P-Frames: Y:4.7% UV:0.4%
[libx264 @ 0x55e17dcc1180] kb/s:3427.69
[aac @ 0x55e17dc9d4c0] Qavg: 1582.593
[AVIOContext @ 0x55e17dc4b500] Statistics: 42863027 bytes read, 0 seeks
[AVIOContext @ 0x55e17dd43780] Statistics: 93903 bytes read, 0 seeks
[AVIOContext @ 0x55e17ddae900] Statistics: 1530915 bytes read, 42 seeks
